<?xml version="1.0" encoding="iso-8859-1"?>
<!-- Generator: Adobe Illustrator 19.0.0, SVG Export Plug-In . SVG Version: 6.00 Build 0)  -->
<svg version="1.1" id="Layer_1" xmlns="http://www.w3.org/2000/svg" xmlns:xlink="http://www.w3.org/1999/xlink" x="0px" y="0px"
	 viewBox="0 0 502.001 502.001" style="enable-background:new 0 0 502.001 502.001;" xml:space="preserve">
<g>
	<g>
		<path style="fill:#D7E6D8;" d="M303.395,376.967c9.899-9.899,30.571-17.084,52.509-22.197
			c-18.14-77.62-27.277-178.345-23.946-288.826H125.697c4.927,163.417-17.418,305.504-55.84,383.019h218.356
			C278.88,424.841,283.929,396.433,303.395,376.967z"/>
	</g>
	<path style="fill:#4FC497;" d="M355.904,354.77c-21.938,5.113-42.609,12.298-52.509,22.197
		c-19.466,19.466-24.515,47.873-15.183,71.996c3.284,8.488,8.333,16.45,15.183,23.299c26.315,26.315,68.98,26.315,95.295,0
		s33.455-128.75,33.455-128.75S392.283,346.292,355.904,354.77z"/>
	<g>
		<path style="fill:#333333;" d="M439.217,336.441c-2.047-2.046-4.88-3.105-7.767-2.904c-1.512,0.105-34.364,2.455-67.972,9.345
			c-16.945-77.537-24.581-175.262-21.525-276.636c0.082-2.703-0.935-5.324-2.818-7.266c-1.883-1.94-4.473-3.036-7.177-3.036H125.697
			c-2.704,0-5.294,1.096-7.177,3.036c-1.884,1.941-2.9,4.562-2.818,7.266c4.764,158.019-15.725,299.431-54.806,378.276
			c-1.536,3.1-1.361,6.773,0.463,9.714c1.823,2.939,5.037,4.728,8.497,4.728h211.86c2.243,4.54,4.921,8.822,8.008,12.827
			l-13.072,13.072c-3.905,3.905-3.905,10.237,0,14.143c1.953,1.952,4.512,2.929,7.071,2.929c2.559,0,5.118-0.977,7.071-2.929
			l13.066-13.065c13.466,10.404,29.885,16.06,47.182,16.06c20.67,0,40.103-8.049,54.719-22.665
			c28.147-28.146,35.603-124.26,36.359-135.126C442.322,341.321,441.263,338.488,439.217,336.441z M135.969,75.944h185.719
			c-2.301,99.395,5.564,194.973,22.314,271.49c-23.116,6.171-38.766,13.551-47.677,22.462c-18.27,18.27-25.996,44.233-21.318,69.067
			H85.492C120.79,357.21,139.422,223.887,135.969,75.944z M391.619,465.191c-10.838,10.839-25.249,16.808-40.576,16.808
			c-11.939,0-23.312-3.636-32.883-10.359l26.475-26.474c3.905-3.905,3.905-10.237,0-14.143c-3.904-3.903-10.234-3.904-14.143,0
			l-26.47,26.469c-2.629-3.756-4.809-7.807-6.483-12.137c-8.2-21.195-3.126-45.264,12.928-61.316
			c5.003-5.004,17.342-12.453,47.707-19.529c23.45-5.466,48.683-8.532,62.99-9.977C417.9,387.515,408.7,448.111,391.619,465.191z"/>
		<path style="fill:#333333;" d="M171.427,32.308c0,5.522,4.478,10,10,10s10-4.478,10-10c0-5.735-2.531-10.938-4.765-15.528
			c-1.011-2.078-2.701-5.554-2.749-6.788c-0.004-5.52-4.479-9.992-10-9.992c-5.522,0-10,4.478-10,10
			c0,5.736,2.531,10.939,4.765,15.53C169.69,27.608,171.383,31.088,171.427,32.308z"/>
		<path style="fill:#333333;" d="M265.047,32.308c0,5.522,4.478,10,10,10s10-4.478,10-10c0-5.735-2.531-10.938-4.765-15.528
			c-1.011-2.078-2.701-5.554-2.749-6.788c-0.004-5.52-4.479-9.992-10-9.992c-5.522,0-10,4.478-10,10
			c0,5.736,2.531,10.939,4.765,15.53C263.31,27.608,265.003,31.088,265.047,32.308z"/>
		<path style="fill:#333333;" d="M312.487,320.448c3.643,0,6.997-1.98,8.756-5.17c1.76-3.189,1.646-7.084-0.298-10.164
			l-38.553-61.131l7.057,1.558c5.393,1.19,10.73-2.215,11.92-7.609c1.19-5.393-2.216-10.729-7.609-11.92l-30.608-6.756
			c-5.387-1.188-10.729,2.216-11.92,7.609l-6.757,30.607c-1.19,5.393,2.216,10.729,7.609,11.92c0.726,0.16,1.45,0.237,2.165,0.237
			c4.59,0,8.725-3.18,9.755-7.847l1.548-7.011l28.807,45.677h-19.756c-5.522,0-10,4.478-10,10s4.478,10,10,10H312.487z"/>
		<path style="fill:#333333;" d="M235.963,208.21l2.595,4.326c1.875,3.126,5.188,4.858,8.586,4.858c1.75,0,3.523-0.46,5.134-1.426
			c4.736-2.841,6.272-8.983,3.433-13.72l-2.595-4.326c-2.841-4.735-8.982-6.272-13.72-3.433
			C234.659,197.331,233.123,203.474,235.963,208.21z"/>
		<path style="fill:#333333;" d="M229.981,281.007c-3.906-3.904-10.236-3.904-14.143,0c-3.905,3.905-3.905,10.237,0,14.143
			l5.299,5.299h-57.562l7.823-12.405c2.946-4.671,1.548-10.847-3.124-13.792c-4.671-2.946-10.846-1.547-13.792,3.124l-17.494,27.739
			c-1.943,3.081-2.058,6.975-0.298,10.164c1.759,3.189,5.113,5.17,8.756,5.17h75.279l-4.888,4.888
			c-3.905,3.905-3.905,10.237,0,14.143c1.953,1.952,4.512,2.929,7.071,2.929s5.118-0.977,7.071-2.929l22.164-22.165
			c3.905-3.905,3.905-10.237,0-14.143L229.981,281.007z"/>
		<path style="fill:#333333;" d="M168.69,259.994c0.571,2.59,2.148,4.847,4.384,6.273c1.62,1.034,3.489,1.571,5.381,1.571
			c0.72,0,1.442-0.077,2.155-0.235l30.608-6.757c5.394-1.19,8.8-6.527,7.609-11.92c-1.19-5.395-6.528-8.801-11.92-7.609
			l-7.017,1.549l37.535-59.517c2.946-4.671,1.548-10.847-3.124-13.792c-4.67-2.947-10.846-1.548-13.792,3.124l-37.49,59.445
			l-1.556-7.051c-1.19-5.393-6.53-8.801-11.92-7.609c-5.394,1.19-8.8,6.527-7.609,11.92L168.69,259.994z"/>
		<path style="fill:#333333;" d="M354.539,420.979c1.952,1.953,4.512,2.93,7.071,2.93c2.559,0,5.118-0.977,7.07-2.929l6.025-6.024
			c3.905-3.904,3.906-10.236,0.001-14.142c-3.903-3.905-10.236-3.905-14.142-0.001l-6.025,6.024
			C350.635,410.742,350.634,417.074,354.539,420.979z"/>
	</g>
</g>
<g>
</g>
<g>
</g>
<g>
</g>
<g>
</g>
<g>
</g>
<g>
</g>
<g>
</g>
<g>
</g>
<g>
</g>
<g>
</g>
<g>
</g>
<g>
</g>
<g>
</g>
<g>
</g>
<g>
</g>
</svg>
